{
    "asset" : {
        "generator" : "Khronos glTF Blender I/O v1.7.33",
        "version" : "2.0"
    },
    "scene" : 0,
    "scenes" : [
        {
            "name" : "Scene",
            "nodes" : [
                0
            ]
        }
    ],
    "nodes" : [
        {
            "mesh" : 0,
            "name" : "Cube",
            "scale" : [
                4.578546047210693,
                4.578546047210693,
                4.578546047210693
            ]
        }
    ],
    "materials" : [
        {
            "doubleSided" : true,
            "name" : "Material.001",
            "pbrMetallicRoughness" : {
                "baseColorFactor" : [
                    0.1820981353521347,
                    0.8000000715255737,
                    0.6993406414985657,
                    1
                ],
                "metallicFactor" : 0
            }
        },
        {
            "doubleSided" : true,
            "name" : "Material.002",
            "pbrMetallicRoughness" : {
                "baseColorFactor" : [
                    0,
                    0,
                    0,
                    1
                ],
                "metallicFactor" : 0,
                "roughnessFactor" : 0.33030304312705994
            }
        },
        {
            "doubleSided" : true,
            "name" : "Material.003",
            "pbrMetallicRoughness" : {
                "baseColorFactor" : [
                    0.5613313913345337,
                    0.5714523792266846,
                    0.46546104550361633,
                    1
                ],
                "metallicFactor" : 0
            }
        },
        {
            "doubleSided" : true,
            "name" : "Material",
            "pbrMetallicRoughness" : {
                "baseColorFactor" : [
                    0.006370288785547018,
                    0.006370288785547018,
                    0.006370288785547018,
                    1
                ],
                "metallicFactor" : 0.5590909123420715,
                "roughnessFactor" : 0.9416666626930237
            }
        }
    ],
    "meshes" : [
        {
            "name" : "Cube",
            "primitives" : [
                {
                    "attributes" : {
                        "POSITION" : 0,
                        "NORMAL" : 1,
                        "TEXCOORD_0" : 2
                    },
                    "indices" : 3,
                    "material" : 0
                },
                {
                    "attributes" : {
                        "POSITION" : 4,
                        "NORMAL" : 5,
                        "TEXCOORD_0" : 6
                    },
                    "indices" : 7,
                    "material" : 1
                },
                {
                    "attributes" : {
                        "POSITION" : 8,
                        "NORMAL" : 9,
                        "TEXCOORD_0" : 10
                    },
                    "indices" : 11,
                    "material" : 2
                },
                {
                    "attributes" : {
                        "POSITION" : 12,
                        "NORMAL" : 13,
                        "TEXCOORD_0" : 14
                    },
                    "indices" : 15,
                    "material" : 3
                }
            ]
        }
    ],
    "accessors" : [
        {
            "bufferView" : 0,
            "componentType" : 5126,
            "count" : 2592,
            "max" : [
                2.4599499702453613,
                7.536332607269287,
                2.0223793983459473
            ],
            "min" : [
                -2.4599499702453613,
                -1.93655526638031,
                -1.9871968030929565
            ],
            "type" : "VEC3"
        },
        {
            "bufferView" : 1,
            "componentType" : 5126,
            "count" : 2592,
            "type" : "VEC3"
        },
        {
            "bufferView" : 2,
            "componentType" : 5126,
            "count" : 2592,
            "type" : "VEC2"
        },
        {
            "bufferView" : 3,
            "componentType" : 5123,
            "count" : 10368,
            "type" : "SCALAR"
        },
        {
            "bufferView" : 4,
            "componentType" : 5126,
            "count" : 154,
            "max" : [
                1.3158255815505981,
                4.970515251159668,
                1.5692683458328247
            ],
            "min" : [
                -1.3158255815505981,
                4.4152421951293945,
                1.2066432237625122
            ],
            "type" : "VEC3"
        },
        {
            "bufferView" : 5,
            "componentType" : 5126,
            "count" : 154,
            "type" : "VEC3"
        },
        {
            "bufferView" : 6,
            "componentType" : 5126,
            "count" : 154,
            "type" : "VEC2"
        },
        {
            "bufferView" : 7,
            "componentType" : 5123,
            "count" : 384,
            "type" : "SCALAR"
        },
        {
            "bufferView" : 8,
            "componentType" : 5126,
            "count" : 1269,
            "max" : [
                2.2237625122070312,
                6.977784633636475,
                2.267127513885498
            ],
            "min" : [
                -2.2237625122070312,
                -2.8008310794830322,
                -1.1726081371307373
            ],
            "type" : "VEC3"
        },
        {
            "bufferView" : 9,
            "componentType" : 5126,
            "count" : 1269,
            "type" : "VEC3"
        },
        {
            "bufferView" : 10,
            "componentType" : 5126,
            "count" : 1269,
            "type" : "VEC2"
        },
        {
            "bufferView" : 11,
            "componentType" : 5123,
            "count" : 4860,
            "type" : "SCALAR"
        },
        {
            "bufferView" : 12,
            "componentType" : 5126,
            "count" : 66,
            "max" : [
                0.40209314227104187,
                4.738005638122559,
                2.2290148735046387
            ],
            "min" : [
                -0.40209314227104187,
                4.214380264282227,
                2.1802217960357666
            ],
            "type" : "VEC3"
        },
        {
            "bufferView" : 13,
            "componentType" : 5126,
            "count" : 66,
            "type" : "VEC3"
        },
        {
            "bufferView" : 14,
            "componentType" : 5126,
            "count" : 66,
            "type" : "VEC2"
        },
        {
            "bufferView" : 15,
            "componentType" : 5123,
            "count" : 300,
            "type" : "SCALAR"
        }
    ],
    "bufferViews" : [
        {
            "buffer" : 0,
            "byteLength" : 31104,
            "byteOffset" : 0
        },
        {
            "buffer" : 0,
            "byteLength" : 31104,
            "byteOffset" : 31104
        },
        {
            "buffer" : 0,
            "byteLength" : 20736,
            "byteOffset" : 62208
        },
        {
            "buffer" : 0,
            "byteLength" : 20736,
            "byteOffset" : 82944
        },
        {
            "buffer" : 0,
            "byteLength" : 1848,
            "byteOffset" : 103680
        },
        {
            "buffer" : 0,
            "byteLength" : 1848,
            "byteOffset" : 105528
        },
        {
            "buffer" : 0,
            "byteLength" : 1232,
            "byteOffset" : 107376
        },
        {
            "buffer" : 0,
            "byteLength" : 768,
            "byteOffset" : 108608
        },
        {
            "buffer" : 0,
            "byteLength" : 15228,
            "byteOffset" : 109376
        },
        {
            "buffer" : 0,
            "byteLength" : 15228,
            "byteOffset" : 124604
        },
        {
            "buffer" : 0,
            "byteLength" : 10152,
            "byteOffset" : 139832
        },
        {
            "buffer" : 0,
            "byteLength" : 9720,
            "byteOffset" : 149984
        },
        {
            "buffer" : 0,
            "byteLength" : 792,
            "byteOffset" : 159704
        },
        {
            "buffer" : 0,
            "byteLength" : 792,
            "byteOffset" : 160496
        },
        {
            "buffer" : 0,
            "byteLength" : 528,
            "byteOffset" : 161288
        },
        {
            "buffer" : 0,
            "byteLength" : 600,
            "byteOffset" : 161816
        }
    ],
    "buffers" : [
        {
            "byteLength" : 162416,
            "uri" : "data:application/octet-stream;base64,"
        }
    ]
}
